<?xml version="1.0" standalone="no"?>
<!DOCTYPE svg PUBLIC "-//W3C//DTD SVG 20010904//EN"
 "http://www.w3.org/TR/2001/REC-SVG-20010904/DTD/svg10.dtd">
<svg version="1.0" xmlns="http://www.w3.org/2000/svg"
 width="1600.000000pt" height="900.000000pt" viewBox="0 0 1600.000000 900.000000"
 preserveAspectRatio="xMidYMid meet">

<g transform="translate(0.000000,900.000000) scale(0.100000,-0.100000)"
fill="#000000" stroke="none">
<path d="M8180 8470 c-284 -28 -573 -109 -835 -234 -119 -57 -275 -148 -275
-161 0 -3 49 20 110 50 424 213 892 314 1270 276 313 -32 594 -144 718 -285
141 -160 170 -353 69 -450 -44 -41 -92 -66 -130 -66 -25 0 -112 43 -123 61 -3
5 -44 9 -92 8 -99 -1 -123 6 -172 51 -84 78 -225 184 -292 220 -167 89 -264
111 -493 111 -286 1 -541 -26 -890 -91 -289 -54 -323 -79 -48 -35 278 45 553
68 838 69 243 1 265 -1 340 -22 164 -47 305 -138 495 -319 l102 -97 -73 -28
c-103 -39 -176 -52 -277 -46 -136 8 -306 74 -504 194 -111 68 -231 125 -312
148 -67 20 -83 15 -34 -10 34 -17 124 -81 149 -106 8 -8 42 -37 77 -66 35 -29
58 -52 52 -52 -6 0 -54 22 -108 49 -122 61 -304 134 -402 160 -213 58 -424 37
-595 -60 -55 -31 -88 -61 -49 -44 326 137 527 109 1015 -142 318 -164 394
-213 329 -213 -10 0 -21 -4 -24 -9 -12 -19 -163 -50 -246 -51 -147 -2 -144 -3
-207 44 -32 25 -70 55 -83 69 -50 48 -166 131 -220 156 -48 22 -69 26 -155 25
-94 0 -108 -2 -235 -48 -195 -69 -255 -85 -345 -92 -67 -5 -89 -3 -135 15 -66
25 -65 25 -46 6 28 -29 110 -56 185 -62 90 -6 204 13 348 59 83 26 114 31 203
32 119 1 166 -15 237 -80 21 -20 47 -42 57 -50 26 -18 17 -25 -41 -31 -97 -9
-212 -47 -362 -120 -192 -92 -200 -95 -291 -100 -72 -5 -101 -1 -185 22 -108
29 -173 60 -277 136 -38 27 -68 44 -68 37 0 -20 141 -149 205 -187 31 -19 93
-48 138 -64 71 -26 96 -30 182 -30 66 0 128 7 183 20 45 11 82 17 82 13 0 -13
-62 -62 -98 -77 -39 -16 -145 -38 -227 -47 -33 -4 -75 -12 -93 -18 -93 -29 81
-48 213 -23 119 22 169 45 233 108 33 33 52 46 52 35 0 -19 -53 -123 -72 -141
-39 -37 -70 -55 -91 -50 -18 4 -19 3 -7 -6 16 -11 8 -15 -24 -11 -11 1 -15 -3
-12 -9 8 -12 -3 -14 -44 -12 -20 2 -22 0 -10 -9 11 -7 8 -9 -15 -4 -30 6 -80
-13 -82 -31 -1 -5 -7 -11 -14 -14 -7 -2 -9 1 -4 9 5 7 -12 -1 -37 -18 -26 -18
-51 -45 -58 -64 -8 -18 -22 -44 -32 -57 -20 -26 -23 -41 -9 -41 12 0 71 27
106 50 33 21 55 25 55 10 0 -5 -17 -16 -37 -25 -139 -60 -131 -71 50 -68 93 2
127 -1 115 -8 -10 -5 -18 -16 -18 -23 0 -8 -7 -19 -15 -26 -16 -13 -12 -25 8
-25 9 0 77 -117 77 -133 0 -1 -22 0 -49 4 -133 18 -259 -157 -278 -387 -7 -93
15 -201 59 -290 33 -66 123 -169 188 -214 22 -15 38 -30 36 -33 -11 -10 -413
48 -651 94 -185 36 -262 72 -457 212 -45 32 -78 62 -78 72 0 28 -37 66 -110
116 -84 56 -79 58 -157 -74 -30 -51 -58 -90 -62 -85 -4 4 -29 63 -54 130 -42
109 -47 131 -47 203 0 73 -3 83 -25 105 -27 27 -46 30 -93 14 -50 -17 -66 -64
-57 -172 5 -63 4 -87 -4 -83 -15 9 -14 5 5 -33 9 -18 14 -45 12 -62 -3 -16 -1
-29 3 -29 17 0 20 47 14 168 -7 142 1 170 47 183 44 12 55 -6 61 -102 4 -78
11 -101 61 -218 31 -72 56 -138 56 -147 0 -16 -184 -361 -205 -382 -10 -11
-21 -11 -56 -2 -66 18 -115 46 -209 118 -227 175 -290 241 -290 303 0 13 -11
48 -25 77 -14 30 -25 59 -25 66 0 7 21 45 46 86 82 133 98 174 104 280 4 84 7
95 25 99 29 5 82 -28 96 -61 18 -45 5 -150 -34 -263 -19 -55 -38 -114 -41
-131 -11 -51 9 -115 47 -150 33 -30 130 -73 215 -94 52 -13 117 -74 127 -119
7 -34 25 -42 25 -12 0 30 -21 84 -47 119 -29 38 -87 69 -203 107 -89 29 -140
58 -140 79 0 6 18 30 40 51 37 36 45 39 105 43 104 7 81 32 -30 32 -56 0 -66
-3 -84 -26 -11 -14 -22 -30 -24 -37 -2 -7 -7 -10 -10 -7 -5 5 9 51 62 195 30
82 38 179 18 227 -21 50 -69 79 -125 76 -41 -2 -45 0 -68 37 -45 75 -40 125
11 125 28 0 109 -85 160 -171 21 -33 52 -101 70 -152 22 -62 47 -109 80 -150
26 -32 49 -56 52 -53 3 2 -7 17 -22 33 -39 41 -73 103 -91 164 -34 115 -131
274 -200 328 -35 28 -79 27 -98 -1 -23 -33 -20 -57 17 -129 27 -54 33 -74 32
-126 -1 -35 -4 -66 -8 -69 -4 -4 -44 27 -89 68 -210 189 -282 234 -352 223
-23 -3 -71 -7 -108 -9 -86 -4 -118 -13 -145 -38 -24 -23 -30 -66 -13 -98 6
-10 39 -28 77 -41 47 -15 79 -33 103 -59 55 -57 201 -219 252 -280 46 -55 148
-214 148 -230 0 -5 13 -24 29 -42 15 -18 31 -43 35 -55 9 -29 83 -95 226 -202
141 -105 201 -139 263 -147 26 -4 50 -11 53 -15 5 -8 -20 -54 -85 -159 -15
-24 -15 -24 2 -11 25 20 251 389 453 739 10 17 23 32 29 32 14 0 113 -72 119
-86 2 -7 -20 -79 -50 -160 -30 -82 -104 -297 -165 -478 -60 -182 -112 -332
-114 -335 -3 -2 -49 38 -103 90 -54 52 -114 103 -132 114 -19 11 -40 31 -46
43 -6 13 -14 20 -17 15 -10 -16 25 -74 53 -88 15 -8 77 -64 138 -126 122 -124
123 -124 152 -47 8 23 20 43 25 45 6 1 75 -51 155 -117 152 -126 175 -139 360
-215 237 -98 533 -250 543 -280 2 -5 1 -41 -2 -80 -3 -38 -3 -207 0 -375 4
-168 7 -430 8 -582 0 -152 4 -279 9 -281 4 -3 102 -1 217 4 116 4 509 17 875
28 366 12 787 25 935 31 149 5 430 15 625 21 195 6 357 12 359 15 9 8 48 348
66 564 10 118 21 218 24 222 3 3 87 23 186 43 519 106 734 164 925 250 180 80
367 190 483 283 21 17 43 32 49 34 6 2 -39 127 -112 303 -160 391 -233 586
-223 595 17 16 88 50 105 50 11 0 43 -38 85 -101 73 -108 208 -296 362 -503
53 -72 95 -132 95 -135 -1 -4 -18 -15 -39 -26 -35 -19 -212 -211 -202 -221 2
-2 42 36 89 85 61 64 101 97 142 116 31 14 56 32 56 38 0 6 -32 59 -71 118
-69 104 -76 129 -41 129 35 1 101 40 237 142 147 110 221 178 231 212 4 12 14
30 23 41 10 11 44 65 75 120 64 110 104 162 211 275 39 41 88 97 110 123 41
51 77 73 161 101 41 13 55 23 65 47 30 73 -29 122 -151 124 -43 1 -83 6 -90
10 -21 13 -77 7 -112 -11 -50 -25 -130 -87 -246 -191 -58 -51 -109 -93 -113
-93 -5 0 -9 31 -9 69 0 56 5 79 30 127 45 89 37 154 -18 154 -38 0 -75 -27
-127 -94 -45 -59 -125 -207 -125 -232 0 -31 -60 -141 -99 -184 -39 -42 -60
-79 -23 -42 74 75 103 119 124 186 12 39 37 100 56 135 38 75 123 183 156 201
64 34 86 -26 40 -108 l-27 -49 -47 5 c-44 4 -51 1 -86 -31 l-39 -36 1 -98 c0
-90 3 -105 38 -188 21 -49 40 -103 43 -120 l5 -30 -17 25 c-10 14 -25 31 -33
38 -16 12 -110 16 -149 6 -36 -10 -16 -24 34 -24 53 0 100 -20 138 -60 27 -28
27 -30 11 -55 -21 -31 -57 -48 -187 -85 -52 -15 -105 -34 -117 -41 -40 -25
-75 -86 -80 -140 -6 -63 7 -63 41 1 31 59 85 99 188 140 116 47 158 74 176
118 20 48 12 113 -26 217 -37 103 -54 209 -40 257 12 44 51 78 89 78 33 0 41
-22 33 -90 -3 -30 1 -68 12 -106 17 -61 29 -84 98 -191 47 -76 48 -68 -22
-261 -10 -29 -37 -63 -76 -100 -94 -89 -300 -241 -357 -265 l-51 -21 -18 24
c-113 156 -249 352 -249 360 0 5 26 67 57 137 53 121 57 134 62 228 l6 100 37
3 c67 6 81 -44 65 -228 -7 -74 -6 -88 10 -108 18 -22 18 -22 15 22 -2 24 1 53
7 65 7 12 8 21 3 21 -5 0 -7 46 -4 103 4 97 3 105 -19 131 -29 33 -93 45 -124
23 -16 -13 -21 -32 -26 -114 -6 -86 -13 -113 -57 -223 -28 -68 -54 -125 -59
-127 -4 -1 -29 27 -56 62 -58 79 -78 82 -173 29 -54 -30 -64 -40 -64 -62 0
-32 -50 -62 -222 -136 -171 -72 -232 -81 -583 -81 -285 1 -656 25 -677 44 -5
4 17 34 47 66 99 107 168 227 203 355 22 80 52 268 52 325 0 30 9 44 59 93 94
91 142 213 157 398 6 78 10 89 37 117 29 30 29 32 24 106 -11 157 -33 174
-220 170 l-122 -2 -19 104 c-22 120 -23 176 -12 390 11 192 0 237 -75 310
l-49 47 16 38 c96 231 -65 519 -368 658 -236 109 -550 161 -808 136z m1180
-900 c26 -51 25 -56 -7 -64 -16 -3 -38 -8 -49 -12 -35 -10 -39 33 -7 78 14 21
30 38 34 38 5 0 18 -18 29 -40z m-84 -163 c36 -105 60 -206 93 -384 45 -243
45 -239 26 -247 -9 -3 -80 -10 -158 -16 -289 -21 -261 -15 -302 -71 -19 -27
-41 -49 -47 -49 -7 0 -23 -3 -35 -6 -18 -5 -33 5 -76 51 l-53 57 -574 -12
c-454 -9 -584 -14 -616 -26 -31 -11 -85 -14 -235 -12 l-194 3 3 35 c2 20 -6
77 -17 128 -12 50 -21 123 -21 162 0 84 -3 82 149 106 185 29 247 34 451 34
195 -1 211 1 327 29 68 17 177 51 244 76 101 38 132 45 192 45 93 0 211 29
356 87 107 42 122 46 196 44 83 -2 189 23 230 54 24 19 26 15 61 -88z m133 31
c15 -66 7 -74 -55 -56 -67 19 -71 46 -12 81 24 15 46 26 50 27 3 0 11 -23 17
-52z m11 -122 c0 -18 -6 -39 -14 -45 -20 -17 -63 -3 -70 22 -12 46 -5 53 57
56 24 1 27 -2 27 -33z m-1896 -80 c15 -9 26 -18 24 -19 -1 -1 -77 0 -168 3
-91 4 -158 7 -150 9 8 1 42 9 75 16 80 19 183 15 219 -9z m1896 -145 c-4 -36
-8 -56 -9 -43 0 12 -4 22 -8 22 -5 0 -9 19 -10 41 0 23 -5 44 -10 48 -17 13
-12 38 9 48 21 9 24 7 30 -20 3 -16 3 -60 -2 -96z m-2390 -250 c0 -39 -26 -83
-65 -108 -32 -21 -77 -29 -145 -24 l-35 2 60 30 c68 35 122 73 148 106 25 31
37 29 37 -6z m466 -359 c13 -70 28 -91 76 -108 27 -9 35 -20 53 -75 80 -236
204 -402 355 -473 58 -27 77 -31 176 -34 133 -5 202 10 322 69 97 48 191 131
241 214 36 58 91 202 91 235 0 33 19 70 32 65 8 -3 28 -31 45 -63 68 -122 182
-253 277 -316 76 -50 151 -75 232 -79 l66 -2 -7 -78 c-13 -157 -69 -321 -148
-436 -67 -99 -205 -216 -316 -270 -245 -117 -747 -139 -1101 -47 -286 75 -538
246 -597 406 -9 25 -20 49 -25 55 -5 5 -27 -9 -56 -37 -139 -137 -332 -105
-506 83 -73 79 -112 163 -125 268 -13 104 9 242 51 326 15 30 79 95 110 111
36 19 54 18 105 -7 24 -12 46 -19 49 -16 3 2 -11 34 -31 71 -63 117 -64 109
13 153 79 45 128 50 422 49 l185 -1 11 -63z m-3287 -31 c72 -37 349 -277 350
-304 1 -10 -9 -37 -20 -60 l-22 -42 -16 25 c-9 14 -32 43 -52 65 -20 22 -49
63 -64 90 -61 107 -131 182 -210 223 -24 13 -33 21 -22 22 10 0 35 -9 56 -19z
m-57 -30 c68 -33 127 -89 183 -173 27 -40 72 -98 100 -128 72 -76 74 -88 31
-159 -20 -32 -36 -72 -36 -87 0 -28 -2 -27 -31 19 -43 69 -285 362 -328 398
-20 16 -63 38 -96 48 -66 20 -86 41 -69 69 29 46 163 53 246 13z m4817 -28
c39 -112 187 -296 293 -364 60 -39 47 -52 -15 -15 -69 41 -127 96 -190 181
-59 79 -130 212 -121 227 10 16 20 7 33 -29z m-1239 -98 c38 -123 131 -270
229 -362 75 -71 51 -68 -27 2 -98 90 -207 274 -229 387 -8 45 11 25 27 -27z
m4414 -274 c-63 -37 -143 -123 -189 -205 -19 -35 -45 -71 -57 -82 -11 -10 -34
-39 -49 -62 l-28 -44 -20 41 c-12 22 -21 49 -21 59 0 12 51 63 134 137 137
119 188 158 228 175 49 19 50 8 2 -19z m241 -5 c34 -14 61 -49 50 -65 -3 -5
-33 -19 -68 -30 -34 -12 -75 -30 -90 -40 -35 -23 -261 -291 -319 -378 l-42
-62 -12 35 c-7 19 -23 52 -36 72 -14 20 -27 44 -31 54 -6 18 26 67 67 99 14
11 51 58 81 104 97 147 205 223 318 224 26 1 63 -5 82 -13z m-4947 -830 c145
-100 306 -178 420 -206 29 -6 52 -15 52 -18 0 -4 -14 -27 -31 -52 -16 -25 -39
-62 -50 -83 -18 -35 -119 -344 -119 -363 1 -14 36 68 74 169 19 51 40 106 46
122 l12 30 10 -25 c5 -14 18 -68 29 -120 11 -52 24 -110 30 -128 9 -27 8 -41
-5 -70 -21 -48 -86 -269 -134 -457 -22 -82 -43 -150 -47 -150 -31 0 -338 900
-323 946 2 6 54 -57 115 -138 205 -270 206 -262 5 40 l-149 223 -17 135 c-9
74 -19 149 -22 167 -7 46 10 42 104 -22z m1242 -288 c0 -27 -41 -198 -68 -282
-11 -33 -30 -68 -43 -79 -21 -18 -136 -75 -213 -106 -16 -6 -26 -14 -24 -17 6
-5 177 49 208 66 16 8 20 8 20 -3 0 -22 -79 -197 -161 -357 -41 -80 -92 -196
-113 -258 -21 -62 -40 -111 -43 -109 -8 9 -133 673 -133 709 0 20 4 39 9 42 5
3 26 50 46 103 88 232 81 219 96 192 10 -17 15 -77 17 -211 2 -104 8 -188 12
-188 5 0 7 7 3 16 -3 8 0 84 6 167 13 152 12 152 -13 232 -14 44 -26 83 -26
87 0 4 62 9 138 11 75 1 170 4 210 5 69 2 72 1 72 -20z"/>
<path d="M8850 6217 c0 -26 60 -119 102 -158 l50 -47 -16 -31 c-9 -17 -44 -60
-78 -96 -64 -69 -70 -92 -15 -60 72 41 131 91 158 134 45 70 41 83 -48 142
-43 28 -95 68 -115 87 -21 20 -38 33 -38 29z"/>
<path d="M8695 5666 c-33 -14 -85 -69 -85 -90 0 -19 267 -8 344 14 80 22 79
39 -4 67 -75 26 -206 30 -255 9z"/>
<path d="M4960 5976 c0 -2 8 -10 18 -17 15 -13 16 -12 3 4 -13 16 -21 21 -21
13z"/>
<path d="M5067 5143 c-12 -12 -7 -23 7 -17 24 9 56 -15 56 -41 0 -24 -36 -59
-52 -49 -4 3 -8 0 -8 -5 0 -19 49 -12 70 9 39 39 14 110 -39 110 -15 0 -31 -3
-34 -7z"/>
<path d="M11215 4668 c-19 -12 -18 -13 9 -18 53 -10 54 -90 0 -90 -22 0 -25
-2 -14 -15 33 -40 100 0 100 60 0 59 -48 91 -95 63z"/>
<path d="M12364 3075 c25 -19 36 -19 36 0 0 10 -10 15 -27 15 -27 -1 -27 -1
-9 -15z"/>
<path d="M11780 3073 c-48 -5 -80 -23 -80 -45 0 -11 -7 -18 -18 -18 -20 0 -52
-29 -52 -46 0 -6 -17 -16 -37 -23 -21 -8 -44 -16 -50 -18 -23 -9 -14 24 10 40
38 24 97 83 97 96 0 22 -66 12 -90 -14 -30 -32 -46 -32 -54 1 -7 25 -10 26
-49 21 -33 -5 -51 -15 -84 -51 -29 -30 -43 -54 -44 -73 0 -27 -1 -27 -9 -5 -5
12 -7 28 -4 35 2 7 -2 27 -11 43 -16 31 -15 34 -20 -48 -3 -45 -21 -70 -48
-66 -22 3 -42 54 -26 64 5 3 9 11 9 19 0 13 -11 16 -132 29 l-48 6 3 -38 c3
-49 10 -59 52 -66 19 -4 35 -10 35 -14 0 -7 -338 -16 -484 -13 -38 0 -75 -4
-82 -10 -8 -7 -31 -9 -56 -5 -59 9 -80 8 -274 -9 l-81 -8 -6 33 c-4 18 -7 54
-7 81 l0 49 -67 0 c-72 0 -544 -16 -753 -25 -69 -3 -264 -9 -435 -15 -170 -6
-420 -15 -555 -20 -135 -5 -321 -12 -415 -15 -93 -3 -298 -9 -455 -15 -157 -5
-357 -12 -445 -15 -88 -3 -212 -7 -275 -10 -123 -5 -274 -10 -790 -25 -179 -5
-359 -12 -400 -15 -41 -2 -172 -7 -290 -10 -118 -3 -345 -10 -505 -15 -280 -9
-387 -13 -710 -25 -196 -7 -844 -28 -872 -27 -13 0 -24 -5 -24 -12 -3 -25 2
-161 11 -351 5 -110 19 -445 30 -745 12 -300 25 -626 30 -725 5 -99 11 -234
12 -300 l3 -120 120 3 c66 1 226 7 355 12 129 6 442 17 695 25 253 8 638 22
855 30 217 8 519 19 670 25 151 6 334 12 405 15 72 3 281 10 465 15 184 6 454
15 600 20 146 5 351 12 455 16 105 4 191 8 193 9 1 1 -7 21 -20 43 -17 34 -28
43 -57 48 -50 8 -104 25 -118 36 -11 9 -30 61 -39 105 -1 6 17 34 41 62 52 61
69 107 60 163 l-7 41 -145 -6 c-109 -5 -145 -3 -148 6 -2 6 -13 170 -24 362
-11 193 -26 438 -32 547 -6 108 -8 201 -5 207 5 7 48 11 116 11 l108 0 6 -77
c3 -43 13 -224 21 -403 9 -179 18 -349 21 -377 l5 -53 50 0 c42 0 51 3 58 23
4 12 20 57 35 100 33 90 115 232 154 264 15 13 57 39 94 58 51 27 66 40 61 52
-4 10 1 21 13 30 16 12 20 11 35 -8 15 -20 19 -21 54 -9 24 8 66 11 116 7 59
-4 80 -2 91 10 13 12 21 11 63 -11 35 -19 63 -26 104 -26 73 0 105 17 109 56
4 45 -24 63 -143 91 -86 20 -112 31 -139 57 -84 79 -45 219 71 254 67 20 161
15 218 -12 74 -34 81 -47 49 -85 -30 -36 -38 -37 -95 -11 -85 38 -169 19 -169
-39 0 -34 20 -44 137 -71 104 -25 138 -42 163 -83 43 -71 30 -175 -29 -216
-66 -46 -210 -58 -297 -25 -24 9 -46 15 -48 13 -3 -4 -86 -206 -118 -287 -12
-29 -18 -55 -15 -58 3 -3 36 10 73 29 319 160 593 179 726 50 32 -32 40 -35
72 -29 30 6 40 15 60 54 65 128 242 228 536 300 366 91 331 85 500 79 166 -5
225 -18 291 -61 107 -71 93 -222 -35 -378 -26 -32 -43 -58 -38 -58 21 0 178
53 188 64 8 8 7 48 -7 151 -10 77 -21 219 -25 315 -7 231 -13 221 168 306 75
35 146 64 157 64 11 0 26 7 33 16 23 29 83 84 91 84 4 0 -2 -18 -13 -40 -11
-21 -20 -44 -20 -49 0 -5 25 -15 55 -21 31 -6 68 -22 82 -35 l27 -23 3 -303
c2 -167 7 -306 11 -310 4 -4 48 3 97 16 l90 22 0 114 c0 106 1 114 20 117 16
2 23 -7 35 -50 l15 -52 34 30 c34 31 34 31 22 76 -7 25 -10 55 -6 67 9 28 172
160 266 214 41 24 55 27 147 27 91 0 103 2 114 20 7 11 16 20 21 20 4 0 25 12
47 26 21 14 43 23 49 20 5 -4 12 -2 16 3 6 11 44 6 56 -6 4 -5 9 -21 11 -38 2
-16 8 -28 13 -25 6 3 9 12 8 20 -1 8 -3 63 -4 122 -1 58 -5 112 -9 119 -4 6
-31 14 -59 17 -28 2 -54 9 -58 15 -4 7 11 8 45 3 51 -7 52 -6 52 19 0 23 -4
25 -43 25 -24 0 -51 6 -61 13 -22 16 -18 64 4 59 68 -16 78 -15 93 14 28 57
18 274 -13 274 -5 0 -14 -9 -20 -20 -9 -18 -20 -19 -108 -18 -53 1 -128 -3
-167 -9 -38 -6 -72 -9 -73 -7 -2 1 8 13 22 25 14 12 26 26 26 31 0 16 -27 8
-56 -17 -38 -32 -54 -32 -24 0 13 14 29 25 35 25 11 0 45 33 59 57 11 20 -90
9 -115 -13 -21 -19 -22 -19 -15 1 5 19 1 20 -67 21 -39 1 -88 -1 -107 -3z
m230 -38 c-7 -8 -17 -15 -22 -15 -6 0 -5 7 2 15 7 8 17 15 22 15 6 0 5 -7 -2
-15z m-70 -4 c0 -5 -7 -12 -16 -15 -14 -5 -15 -4 -4 9 14 17 20 19 20 6z m25
-31 c-9 -15 -65 -52 -65 -43 0 4 15 18 33 31 35 24 41 27 32 12z m-85 -25
c-13 -14 -30 -25 -37 -25 -8 0 -2 11 14 25 37 32 53 32 23 0z m-4170 -152 c-1
-38 3 -111 9 -163 6 -52 11 -134 11 -182 l0 -88 -39 0 c-22 0 -42 4 -46 9 -3
5 -7 90 -10 188 l-4 178 -33 5 c-43 7 -51 41 -13 58 14 6 30 23 37 37 9 20 18
25 50 25 l39 0 -1 -67z m-237 30 c9 -47 1 -52 -86 -55 -77 -3 -82 -4 -94 -30
-10 -19 -10 -34 -3 -53 10 -25 13 -27 59 -20 89 12 150 -34 165 -126 13 -82
-25 -156 -93 -185 -61 -26 -181 -10 -204 27 -15 25 21 72 47 63 12 -4 44 -9
72 -11 45 -4 54 -2 68 18 22 31 21 92 -1 111 -30 25 -52 28 -86 12 -30 -14
-37 -14 -70 0 -32 13 -37 19 -36 48 1 18 4 44 8 58 4 13 3 51 -2 82 -14 85 -9
88 133 88 l118 0 5 -27z m-693 -9 c44 -30 50 -45 50 -123 l0 -76 -68 -65 c-70
-66 -92 -96 -92 -125 0 -14 12 -16 83 -15 45 1 88 1 95 1 7 -1 12 -16 12 -40
0 -37 -2 -39 -35 -43 -19 -2 -86 -4 -148 -4 l-112 1 2 54 c4 82 39 147 117
215 83 73 93 89 72 121 -21 32 -64 40 -115 19 -38 -15 -43 -15 -66 0 -32 21
-32 39 3 62 43 30 53 33 117 33 41 1 69 -4 85 -15z m-413 -5 c46 -17 73 -49
73 -86 0 -25 -4 -33 -17 -33 -17 -1 -17 -1 0 -14 19 -15 22 -48 6 -78 -6 -11
-42 -51 -80 -87 -45 -43 -69 -74 -69 -89 0 -21 3 -22 95 -22 l95 0 0 -45 0
-45 -110 -2 c-60 -1 -127 -2 -147 -2 -37 -1 -38 0 -41 37 -2 21 5 64 14 95 18
56 55 101 147 179 41 34 47 65 20 95 -20 22 -73 24 -114 3 -27 -14 -31 -14
-54 2 -30 22 -31 34 -2 61 43 40 124 54 184 31z m4326 -41 c-5 -7 -16 -29 -24
-48 -7 -19 -24 -44 -37 -55 -32 -28 -35 -85 -5 -100 19 -10 20 -12 5 -22 -10
-6 -16 -21 -14 -37 1 -20 -4 -29 -26 -38 -15 -7 -46 -25 -69 -40 -48 -32 -53
-34 -53 -12 0 9 -7 14 -17 12 -12 -2 -19 -14 -21 -38 -2 -19 -8 -39 -13 -44
-5 -6 -9 -25 -9 -42 0 -18 -4 -36 -10 -39 -5 -3 -10 1 -10 10 0 9 -6 15 -12
12 -7 -2 -12 -14 -10 -27 3 -15 -1 -21 -10 -18 -8 3 -13 23 -14 52 -1 29 -7
52 -15 57 -11 7 -12 12 -1 29 16 26 15 37 -3 37 -8 0 -12 -4 -9 -8 2 -4 -8
-21 -23 -38 -58 -63 -58 -62 -39 -77 17 -12 17 -14 0 -43 -10 -17 -21 -31 -25
-31 -13 0 -29 -63 -30 -119 -2 -49 -3 -45 -9 29 -5 47 -11 137 -14 200 -10
180 -17 285 -22 289 -2 2 1 12 6 22 7 12 7 20 0 24 -12 7 -14 112 -2 119 12 7
151 8 250 2 48 -3 82 -2 82 4 0 5 42 11 93 12 96 3 131 -8 110 -34z m354 9
c11 -22 20 -28 36 -23 11 3 26 1 31 -3 21 -16 66 -22 66 -9 0 9 3 9 8 2 4 -6
15 -13 25 -17 23 -9 32 15 17 43 -9 18 -9 24 0 30 24 15 45 4 48 -26 2 -22 -5
-37 -31 -62 -31 -30 -36 -32 -78 -24 -24 4 -60 7 -79 7 -29 0 -36 -4 -38 -23
l-3 -22 -32 22 c-18 12 -34 27 -36 32 -2 5 -21 28 -42 51 -22 23 -39 44 -39
47 0 2 30 4 66 3 62 0 67 -2 81 -28z m361 -37 c-18 -27 -38 -50 -45 -50 -7 0
-20 -11 -29 -25 -9 -13 -24 -27 -35 -30 -10 -4 -19 -13 -19 -21 0 -8 -7 -14
-15 -14 -8 0 -20 -9 -27 -19 -6 -11 -33 -37 -60 -58 -26 -20 -48 -43 -48 -50
0 -7 -7 -13 -15 -13 -23 0 -18 18 10 36 16 10 25 26 25 41 0 31 73 108 95 100
9 -4 25 9 46 38 30 41 41 49 62 46 4 0 7 3 7 8 0 16 73 86 78 73 2 -6 -11 -34
-30 -62z m-5542 -2 c11 -18 -57 -70 -84 -65 -12 2 -25 0 -28 -5 -6 -10 -34 9
-34 23 0 5 19 30 41 54 l41 45 29 -21 c16 -11 32 -25 35 -31z m6048 -4 c5 -14
4 -15 -9 -4 -17 14 -19 20 -6 20 5 0 12 -7 15 -16z m-289 -74 c3 -5 2 -10 -4
-10 -5 0 -13 5 -16 10 -3 6 -2 10 4 10 5 0 13 -4 16 -10z m-5856 -31 c-21 -40
-14 -42 124 -38 l132 4 0 -45 0 -45 -123 -6 c-68 -4 -126 -10 -130 -14 -4 -3
1 -13 12 -20 32 -24 106 -96 106 -104 0 -16 -59 -63 -70 -56 -21 13 -255 217
-258 225 -5 14 63 76 107 96 23 11 57 20 76 20 29 0 32 -2 24 -17z m5398 15
c-3 -3 -12 -4 -19 -1 -8 3 -5 6 6 6 11 1 17 -2 13 -5z m-4039 -46 l-3 -43 -90
0 -90 0 -3 28 c-6 54 0 57 98 57 l91 0 -3 -42z m4004 -4 c-2 -14 -27 -47 -53
-73 -27 -27 -49 -53 -49 -59 0 -18 35 -33 47 -21 7 7 12 5 17 -6 20 -52 -90
-8 -116 47 -26 55 -11 90 47 106 25 7 56 12 70 12 14 0 25 5 25 10 0 6 4 10 9
10 4 0 6 -12 3 -26z m782 -183 c3 -5 -1 -14 -9 -21 -13 -10 -15 -9 -15 9 0 21
14 28 24 12z m-64 -46 c0 -8 -7 -15 -15 -15 -9 0 -18 -7 -21 -15 -4 -8 -12
-15 -19 -15 -8 0 -26 -11 -42 -24 -16 -14 -41 -28 -56 -31 -15 -4 -27 -11 -27
-16 0 -5 -8 -13 -17 -16 -10 -4 -27 -15 -37 -25 -17 -16 -46 -25 -46 -14 0 4
156 112 206 142 19 12 40 26 46 32 16 16 28 15 28 -3z m-2356 -17 c3 -13 6
-35 6 -50 0 -26 -1 -26 -85 -33 l-85 -7 1 -42 c0 -22 6 -122 13 -221 7 -99 10
-183 8 -187 -2 -5 -25 -8 -52 -8 l-49 0 -5 43 c-3 23 -10 123 -17 222 -6 99
-13 182 -16 185 -3 3 -39 5 -81 5 l-76 0 -9 43 c-5 24 -6 47 -2 50 6 6 164 15
366 20 72 2 77 1 83 -20z m-2739 -88 c7 -12 8 -27 35 -538 10 -200 20 -366 23
-369 3 -2 135 0 293 6 159 6 292 7 296 3 3 -4 8 -52 9 -107 l3 -100 -29 -2
c-17 -1 -156 -7 -310 -13 -154 -5 -326 -13 -381 -16 l-102 -6 -6 104 c-4 56
-11 171 -16 253 -6 83 -14 244 -20 360 -5 115 -13 258 -16 317 l-7 107 74 4
c41 1 91 4 111 5 20 1 40 -3 43 -8z m-743 -232 c128 -284 256 -566 273 -603
109 -238 135 -299 127 -307 -5 -5 -62 -7 -127 -6 l-118 3 -49 117 c-27 64 -55
118 -61 121 -18 7 -431 -13 -438 -21 -4 -4 -23 -61 -44 -128 l-37 -121 -117
-6 c-63 -3 -118 -3 -120 -1 -6 6 56 198 176 544 46 135 112 326 146 425 l62
180 70 6 c39 3 90 6 115 7 l46 2 96 -212z m4378 183 c0 -13 -26 -32 -33 -24
-8 7 11 33 24 33 5 0 9 -4 9 -9z m-5153 -23 c-8 -35 -52 -288 -112 -653 -30
-181 -60 -361 -67 -400 l-13 -70 -110 -6 c-61 -3 -113 -3 -116 0 -6 5 -63 184
-174 546 -19 61 -37 129 -42 153 -4 24 -12 44 -18 45 -5 1 -15 -36 -21 -83 -9
-68 -58 -303 -132 -639 -9 -43 -40 -53 -149 -49 l-77 3 -26 95 c-88 313 -153
551 -180 660 -26 103 -53 204 -96 351 -4 15 10 18 111 24 66 4 120 4 125 -1 5
-5 25 -81 45 -169 20 -88 53 -232 75 -320 21 -88 42 -173 45 -189 9 -45 21
-20 38 84 9 52 36 187 61 300 24 113 47 225 51 250 4 25 12 51 17 58 12 14
194 17 202 3 7 -11 122 -381 173 -556 45 -157 43 -149 49 -142 3 3 12 54 19
114 7 59 24 187 39 283 14 96 29 206 33 245 10 83 9 83 157 84 97 1 98 1 93
-21z m6257 -334 c3 -9 6 -25 6 -37 -1 -17 -2 -19 -9 -7 -16 27 -22 60 -13 60
6 0 13 -7 16 -16z m-3714 -944 c-12 -8 -12 -10 -1 -10 8 0 12 -2 9 -5 -3 -3
-40 -8 -82 -11 -58 -3 -76 -2 -74 8 3 15 44 25 113 27 36 0 46 -2 35 -9z
m-340 -15 c0 -9 -6 -18 -12 -20 -23 -8 -148 -13 -148 -7 0 15 18 34 26 29 5
-3 27 -1 49 3 65 13 85 11 85 -5z m100 5 c-8 -5 -10 -10 -5 -10 6 0 3 -5 -5
-10 -25 -16 -59 -11 -70 10 -10 19 -8 20 42 20 38 0 49 -3 38 -10z m67 -5 c0
-8 -9 -15 -19 -15 -16 0 -17 2 -6 15 17 19 25 19 25 0z m-349 -17 c3 -16 -6
-18 -90 -18 -51 0 -169 -5 -263 -10 -93 -5 -276 -12 -405 -15 -129 -3 -245 -7
-257 -9 -12 -3 -147 -8 -300 -11 -153 -3 -300 -8 -328 -10 -27 -2 -124 -6
-215 -9 -91 -4 -226 -9 -300 -11 -74 -3 -166 -7 -205 -10 -38 -3 -207 -10
-375 -15 -168 -6 -327 -13 -355 -16 -56 -6 -121 11 -95 26 14 7 280 17 320 11
8 -1 29 0 45 3 75 14 132 18 310 22 489 11 552 13 581 19 17 3 107 8 200 10
373 11 424 14 434 20 5 3 13 -1 16 -9 7 -18 34 -22 34 -5 0 8 15 10 45 7 25
-3 48 -2 51 3 3 5 15 8 27 7 12 0 69 2 127 6 58 4 184 9 280 12 96 3 263 9
370 12 312 11 344 10 348 -10z m-3217 -111 c2 -28 -15 -30 -259 -34 -151 -2
-252 0 -252 6 0 15 39 20 230 26 102 4 187 9 189 11 7 7 91 -1 92 -9z m-538
-22 c9 -21 0 -23 -88 -25 -103 -2 -100 -3 -85 16 10 11 29 14 76 12 35 -1 66
1 70 5 11 11 21 8 27 -8z m-218 -15 c3 -5 2 -10 -4 -10 -5 0 -13 5 -16 10 -3
6 -2 10 4 10 5 0 13 -4 16 -10z"/>
<path d="M10443 2755 c4 -8 2 -17 -3 -20 -15 -9 -12 -25 5 -25 8 0 15 9 15 20
0 11 6 20 13 20 8 0 7 4 -3 10 -22 14 -33 12 -27 -5z"/>
<path d="M10200 2725 c0 -9 5 -15 11 -13 6 2 11 8 11 13 0 5 -5 11 -11 13 -6
2 -11 -4 -11 -13z"/>
<path d="M10432 2633 c4 -39 28 -42 28 -4 0 21 -5 31 -16 31 -11 0 -14 -8 -12
-27z"/>
<path d="M10434 2546 c-9 -23 5 -68 19 -63 16 5 16 69 0 74 -7 3 -16 -2 -19
-11z"/>
<path d="M10361 2474 c0 -11 3 -14 6 -6 3 7 2 16 -1 19 -3 4 -6 -2 -5 -13z"/>
<path d="M10207 2404 c-9 -10 2 -24 19 -24 8 0 14 7 14 15 0 15 -21 21 -33 9z"/>
<path d="M10366 2381 c-4 -7 -5 -15 -2 -18 9 -9 19 4 14 18 -4 11 -6 11 -12 0z"/>
<path d="M10210 2315 c-10 -12 -10 -19 -2 -27 15 -15 48 14 38 31 -10 15 -21
14 -36 -4z"/>
<path d="M5781 1883 c-13 -43 -36 -120 -52 -171 -16 -51 -29 -100 -29 -108 0
-13 19 -15 126 -13 83 2 128 7 131 15 2 6 -25 80 -60 165 -35 85 -66 162 -70
172 -12 33 -24 17 -46 -60z"/>
<path d="M12344 2325 c0 -14 5 -25 12 -25 7 0 9 10 6 25 -2 14 -7 25 -11 25
-4 0 -7 -11 -7 -25z"/>
<path d="M10993 2255 c-91 -43 -115 -59 -124 -82 -11 -30 -14 -275 -4 -353 4
-25 12 -61 17 -80 6 -19 13 -46 14 -60 1 -14 8 -56 14 -93 7 -37 10 -74 7 -81
-5 -13 -66 -36 -287 -106 -106 -33 -138 -40 -152 -31 -10 6 -34 11 -54 11 -30
0 -46 -9 -100 -61 l-63 -62 39 -44 c80 -92 101 -179 57 -244 -23 -33 -25 -34
-88 -33 -161 4 -352 90 -442 200 -19 23 -27 43 -25 61 3 26 7 28 128 55 261
58 519 172 644 287 82 75 143 195 131 258 -7 37 -48 76 -102 95 -62 21 -350
18 -438 -6 -242 -65 -390 -120 -524 -196 -105 -60 -146 -92 -191 -148 -37 -46
-46 -51 -107 -65 -38 -9 -75 -18 -84 -22 -12 -4 -24 6 -43 38 -73 125 -264
130 -551 14 -60 -24 -154 -67 -207 -96 -53 -28 -99 -51 -102 -51 -3 0 -6 17
-6 38 0 55 37 179 72 242 71 128 88 165 88 197 0 33 0 33 -47 33 -36 0 -73
-13 -167 -58 -67 -33 -126 -65 -133 -73 -24 -29 -86 -147 -113 -215 -43 -107
-60 -208 -58 -336 2 -121 -6 -149 -58 -211 -15 -17 -24 -42 -24 -62 0 -30 3
-33 44 -44 25 -6 56 -11 69 -11 17 0 33 -14 62 -55 83 -121 201 -204 349 -245
94 -26 181 -29 297 -8 259 46 537 346 539 580 0 58 8 68 51 68 37 0 39 -2 74
-69 44 -83 126 -177 194 -220 56 -37 280 -124 387 -151 169 -44 353 -31 488
34 98 47 178 131 201 211 17 55 16 59 -4 121 -12 36 -21 68 -21 73 0 10 201
66 272 76 l47 7 10 -38 c5 -22 17 -68 26 -104 19 -73 84 -219 106 -236 25 -19
95 -34 156 -34 80 0 138 30 181 94 38 58 39 72 8 119 -23 33 -50 114 -81 245
-13 50 -12 53 9 67 12 8 69 26 127 39 57 13 138 32 179 41 89 21 158 53 166
78 7 22 12 22 114 -9 123 -36 293 -63 444 -70 72 -4 139 -11 149 -16 39 -20
17 -92 -60 -188 -147 -184 -147 -185 -117 -228 12 -18 25 -22 69 -22 49 0 59
4 112 46 211 169 361 363 429 558 27 77 27 79 8 93 -13 10 -34 13 -67 9 -27
-3 -110 1 -186 9 -75 8 -184 17 -241 19 -160 6 -339 55 -327 89 6 19 149 48
242 48 105 0 240 16 269 31 41 22 129 114 152 160 13 26 24 61 24 77 0 27 -4
31 -37 37 -20 4 -111 4 -202 0 -97 -4 -251 -2 -371 4 l-205 12 -85 -46 c-52
-27 -106 -66 -139 -100 l-54 -54 27 -49 27 -48 -23 -14 c-50 -31 -128 -123
-139 -164 -7 -23 -17 -47 -23 -53 -13 -12 -304 -80 -311 -72 -10 10 -24 123
-25 208 -1 47 -1 170 -1 273 l1 188 -35 14 c-19 8 -63 15 -97 15 -55 -1 -77
-7 -175 -55z m-604 -569 l21 -19 -22 -25 c-35 -37 -133 -101 -212 -138 -96
-44 -213 -74 -319 -81 -75 -5 -90 -4 -107 12 -11 10 -20 26 -20 36 0 24 31 89
43 89 5 0 36 16 67 35 116 70 292 116 436 112 75 -2 96 -6 113 -21z m-1484
-325 c53 -30 75 -75 75 -155 0 -173 -103 -386 -214 -441 -94 -47 -151 -29
-262 80 -79 77 -122 152 -131 224 -5 46 -5 47 48 92 86 73 238 170 322 206 58
24 111 22 162 -6z"/>
<path d="M10155 1634 c-103 -21 -136 -28 -175 -41 -55 -19 -160 -81 -160 -95
0 -14 98 -4 183 18 65 16 207 80 242 107 19 16 18 16 -25 16 -25 -1 -54 -3
-65 -5z"/>
<path d="M8733 1281 c-64 -35 -216 -135 -267 -175 -26 -21 -15 -72 29 -127 19
-24 35 -49 35 -56 0 -6 21 -29 48 -51 97 -80 126 -82 194 -12 26 27 48 56 48
63 0 7 9 31 21 52 32 61 57 138 64 198 9 70 -13 121 -57 136 -41 14 -33 16
-115 -28z"/>
<path d="M11856 1456 c-32 -27 -36 -34 -23 -39 19 -7 23 -42 7 -52 -6 -4 -24
8 -41 26 l-30 32 -52 -13 c-29 -7 -56 -16 -62 -20 -5 -4 -23 -8 -40 -8 -16 0
-63 -8 -103 -17 l-73 -17 6 -31 c4 -18 29 -88 57 -157 34 -86 47 -133 43 -150
-10 -38 -49 -101 -91 -144 l-38 -38 299 7 c473 10 808 24 815 32 4 4 5 25 3
46 l-5 38 -69 -6 c-62 -5 -70 -3 -89 17 -36 37 -80 105 -80 122 0 9 15 37 34
63 18 27 41 64 51 83 10 19 35 61 57 93 22 33 37 61 34 64 -5 5 -66 11 -156
15 l-55 3 -7 -55 c-4 -33 -2 -60 4 -67 6 -7 7 -28 4 -48 -6 -28 -12 -35 -29
-35 -21 0 -24 9 -40 95 -10 53 -15 99 -13 104 9 14 -62 43 -97 39 -18 -2 -31
-8 -30 -13 7 -45 22 -200 19 -203 -9 -8 -66 30 -78 51 -6 12 -17 60 -24 106
-7 46 -16 87 -21 91 -24 22 -50 18 -87 -14z m-152 -111 c-4 -8 -10 -15 -15
-15 -5 0 -9 7 -9 15 0 8 7 15 15 15 9 0 12 -6 9 -15z m330 -150 c22 -17 21
-20 -11 -29 -13 -4 -23 -3 -23 3 0 5 -3 16 -6 25 -8 20 14 20 40 1z m189 -79
c6 -15 -20 -26 -60 -26 -27 0 -31 26 -5 33 35 9 60 7 65 -7z m-193 -31 c0 -9
-9 -15 -22 -15 -13 0 -33 -3 -45 -6 -17 -5 -23 -2 -23 9 0 19 15 25 58 26 22
1 32 -4 32 -14z m-224 -16 c8 -14 -18 -31 -30 -19 -9 9 0 30 14 30 5 0 12 -5
16 -11z m232 -160 c11 -18 11 -20 -5 -17 -18 3 -43 22 -43 32 0 15 37 4 48
-15z"/>
<path d="M10120 1229 c-14 -6 -63 -19 -110 -30 -124 -28 -121 -26 -77 -64 76
-66 209 -119 322 -127 44 -3 52 9 41 67 -7 36 -109 159 -135 162 -9 1 -27 -2
-41 -8z"/>
<path d="M10802 1179 l-63 -20 7 -52 c4 -29 8 -54 10 -55 15 -19 -92 -232
-117 -232 -5 0 -9 -5 -9 -11 0 -8 57 -9 203 -3 111 4 212 7 225 6 12 -1 22 3
22 8 0 6 -4 10 -10 10 -13 0 -122 219 -150 303 -26 76 -25 75 -118 46z"/>
<path d="M9337 1044 c-4 -4 -7 -16 -7 -26 0 -25 -45 -122 -81 -176 -16 -24
-29 -46 -29 -49 0 -4 -8 -15 -17 -26 -18 -20 -17 -20 172 -14 105 4 223 7 263
7 71 0 88 11 37 24 -73 18 -265 167 -315 245 -8 12 -18 19 -23 15z"/>
</g>
</svg>
